# xmcd
#
# Track frame offsets: 
#        150
#        18720
#        36574
#        51453
#        74570
#        92064
#        107387
#        133011
#        149874
#        171779
#        189574
#        203681
#        224568
#
# Disc length: 3378 seconds
#
# Revision: 0
# Processed by: cddbd v1.5.2PL0 Copyright (c) Steve Scherf et al.
# Submitted via: ExactAudioCopy v1.0b4
#
DISCID=d40d300d
DTITLE=La Mississippi - Inoxidables
DYEAR=2015
DGENRE=Blues
TTITLE0=Post Crucifixión
TTITLE1=Ritmo y Blue con armónica
TTITLE2=No Tan Distintos
TTITLE3=Cementerio Club
TTITLE4=Un Casa Con Diez Pinos
TTITLE5=La Mamá de Jimmy
TTITLE6=Masacre En El Puticlub
TTITLE7=Todos Los Caballos Blancos
TTITLE8=Pato Trabaja En Una Carnicería
TTITLE9=Azucar Amarga
TTITLE10=Blues Del Estibador
TTITLE11=Gato de la Calle Negra
TTITLE12=Mejor No Hablar de Ciertas Cosas
EXTD=
EXTT0=
EXTT1=
EXTT2=
EXTT3=
EXTT4=
EXTT5=
EXTT6=
EXTT7=
EXTT8=
EXTT9=
EXTT10=
EXTT11=
EXTT12=
PLAYORDER=
